<?xml version="1.0" encoding="UTF-8"?>
<svg xmlns="http://www.w3.org/2000/svg" version="1.1" viewBox="0 0 40 40">
    <defs>
        <style>
            .cls-1 {
            fill: #98a3b3;
            }
        </style>
    </defs>
    <g>
        <g id="Layer_1">
            <g id="real-voice">
                <path class="cls-1" d="M20,4c8.8,0,16,7.2,16,16s-7.2,16-16,16S4,28.8,4,20,11.2,4,20,4M20,2C10.1,2,2,10.1,2,20s8.1,18,18,18,18-8.1,18-18S29.9,2,20,2h0Z"/>
                <path class="cls-1" d="M16,27.6c-.3,0-.5,0-.8-.2-.5-.3-.7-.8-.7-1.3v-12.1c0-.5.3-1,.7-1.3.5-.3,1-.3,1.5,0l10.5,6.1c.5.3.8.8.8,1.3s-.3,1-.8,1.3l-10.5,6.1c-.2.1-.5.2-.8.2ZM16.5,14.8v10.4l9-5.2-9-5.2Z"/>
            </g>
        </g>
    </g>
</svg>