<svg width="256" height="256" viewBox="0 0 256 256" fill="none" xmlns="http://www.w3.org/2000/svg">
<g clip-path="url(#clip0_23_1795)">
<rect width="256" height="256" fill="white"/>
<rect y="-180" width="1544" height="500" fill="url(#paint0_linear_23_1795)"/>
<path d="M-68 50C-50.2534 125.004 -32.5069 200.008 -14.7576 204.4C2.98897 208.792 20.7355 142.245 38.4821 147.459C56.2287 152.673 73.9779 229.318 91.7245 193.779C109.471 158.24 127.218 10.5144 144.964 -12.0878C162.713 -34.69 180.46 67.8257 198.207 90.8456C215.953 113.865 233.702 57.3895 251.449 75.4055C269.196 93.4216 286.942 185.932 304.689 193.779C322.438 201.626 340.185 124.808 357.931 44.5255C375.678 -35.7571 393.424 -61.4893 411.174 -10.6855C428.92 40.1183 446.667 167.455 464.413 234.952C482.16 302.449 499.909 252.09 517.656 198.926C535.402 145.761 553.149 89.792 570.895 101.139C588.645 112.486 606.391 191.146 624.138 209.219C641.884 227.292 659.631 184.774 677.38 147.459C695.127 110.144 712.873 78.0301 730.62 85.6989C748.369 93.3677 766.116 140.817 783.862 152.606C801.609 164.394 819.355 140.526 837.105 70.2589C854.851 -0.00793457 872.598 -116.667 890.344 -63.5544C908.091 -10.4414 925.84 212.45 943.587 250.392C961.333 288.335 979.08 141.326 996.826 70.2589C1014.58 -0.808235 1032.32 4.06359 1050.07 39.3789C1067.82 74.6942 1085.56 140.456 1103.31 137.166C1121.06 133.875 1138.8 61.5365 1156.55 70.2589C1174.3 78.9813 1192.05 168.768 1209.79 224.659C1227.54 280.55 1245.29 302.546 1263.04 240.099C1280.78 177.652 1298.53 30.7589 1316.28 3.35221C1334.02 -24.0545 1351.77 68.0278 1369.52 152.606C1387.26 237.183 1405.01 314.259 1422.76 286.419C1440.51 258.578 1458.25 125.819 1476 -6.94112" stroke="#B7DBF9" stroke-opacity="0.15" stroke-width="18"/>
<path d="M-68 133.96C-55.4459 144.574 144.446 134.862 157 128.813C169.551 122.764 258.374 104.936 270.926 82.4929C283.48 60.0497 296.034 -8.18003 308.585 10.4396C321.139 29.0592 333.691 134.534 346.245 185.426C358.796 236.319 371.35 232.635 383.902 180.28C396.456 127.924 409.007 26.9008 421.561 25.8796C434.113 24.8583 446.667 123.841 459.221 149.4C471.772 174.958 484.326 127.088 496.878 159.693C509.432 192.297 521.983 305.373 534.537 288.36C547.089 271.346 559.643 124.24 572.194 97.9329C584.748 71.6256 597.3 166.119 609.854 221.453C622.408 276.786 634.959 292.959 647.513 211.16C660.065 129.36 672.619 -50.4096 685.17 -46.1737C697.724 -41.9378 710.276 146.304 722.83 180.28C735.381 214.256 747.935 93.9638 760.487 72.1996C773.041 50.4354 785.592 127.196 798.146 195.72C810.7 264.243 823.252 324.524 835.806 257.48C848.357 190.435 860.911 -3.93875 873.463 -51.3204C886.017 -98.7021 898.568 0.903431 911.122 15.5863C923.674 30.2691 936.228 -39.9708 948.779 -46.1737C961.333 -52.3767 973.887 5.46 986.439 51.6129C998.993 97.7659 1011.54 132.238 1024.1 133.96C1036.65 135.681 1049.2 104.653 1061.76 144.253C1074.31 183.853 1086.86 294.08 1099.41 257.48C1111.97 220.879 1124.52 37.4555 1137.07 31.0263C1149.63 24.597 1162.18 195.167 1174.73 242.04C1187.29 288.912 1199.84 212.084 1212.39 123.666C1224.94 35.2487 1237.5 -64.761 1250.05 -46.1737C1262.6 -27.5865 1275.15 109.6 1287.71 149.4C1300.26 189.199 1312.81 131.615 1325.37 118.52C1337.92 105.424 1350.47 136.816 1363.02 128.813C1375.58 120.81 1388.13 73.4095 1400.68 72.1996C1413.23 70.9897 1425.79 115.968 1438.34 118.52C1450.89 121.071 1463.45 81.1941 1476 41.3196" stroke="#419DEA" stroke-opacity="0.4" stroke-width="6"/>
<g filter="url(#filter0_d_23_1795)">
<circle cx="128" cy="128" r="76" fill="#218DE6"/>
<path d="M108 103.909C108 100.834 111.325 98.9087 113.991 100.44L155.957 124.531C158.635 126.068 158.635 129.932 155.957 131.469L113.991 155.56C111.325 157.091 108 155.166 108 152.091L108 103.909Z" fill="#F7F9FE"/>
</g>
</g>
<defs>
<filter id="filter0_d_23_1795" x="28" y="36" width="200" height="200" filterUnits="userSpaceOnUse" color-interpolation-filters="sRGB">
<feFlood flood-opacity="0" result="BackgroundImageFix"/>
<feColorMatrix in="SourceAlpha" type="matrix" values="0 0 0 0 0 0 0 0 0 0 0 0 0 0 0 0 0 0 127 0" result="hardAlpha"/>
<feOffset dy="8"/>
<feGaussianBlur stdDeviation="12"/>
<feComposite in2="hardAlpha" operator="out"/>
<feColorMatrix type="matrix" values="0 0 0 0 0.571081 0 0 0 0 0.789892 0 0 0 0 0.968919 0 0 0 1 0"/>
<feBlend mode="normal" in2="BackgroundImageFix" result="effect1_dropShadow_23_1795"/>
<feBlend mode="normal" in="SourceGraphic" in2="effect1_dropShadow_23_1795" result="shape"/>
</filter>
<linearGradient id="paint0_linear_23_1795" x1="772" y1="-180" x2="772" y2="320" gradientUnits="userSpaceOnUse">
<stop offset="0.401214" stop-color="#FBFEFF"/>
<stop offset="1" stop-color="#B7DBF9"/>
</linearGradient>
<clipPath id="clip0_23_1795">
<rect width="256" height="256" fill="white"/>
</clipPath>
</defs>
</svg>
